<?xml version="1.0" encoding="iso-8859-1"?>
<!-- Uploaded to: SVG Repo, www.svgrepo.com, Generator: SVG Repo Mixer Tools -->
<svg height="800px" width="800px" version="1.1" id="Layer_1" xmlns="http://www.w3.org/2000/svg" xmlns:xlink="http://www.w3.org/1999/xlink" 
	 viewBox="0 0 512 512" xml:space="preserve">
<g transform="translate(1)">
	<g>
		<polygon style="fill:#FFE100;" points="50.2,145.067 101.4,145.067 101.4,59.733 50.2,59.733 		"/>
		<polygon style="fill:#FFE100;" points="408.6,145.067 459.8,145.067 459.8,59.733 408.6,59.733 		"/>
	</g>
	<polygon style="fill:#FFA800;" points="434.2,145.067 459.8,145.067 459.8,59.733 434.2,59.733 	"/>
	<polygon style="fill:#FFFFFF;" points="50.2,145.067 75.8,145.067 75.8,59.733 50.2,59.733 	"/>
	<polygon style="fill:#FFA800;" points="255,76.8 101.4,76.8 101.4,128 255,128 408.6,128 408.6,76.8 	"/>
	<g>
		<polygon style="fill:#FFE100;" points="255,128 144.067,128 144.067,503.467 365.933,503.467 365.933,128 		"/>
		<polygon style="fill:#FFE100;" points="255,76.8 365.933,76.8 365.933,8.533 144.067,8.533 144.067,76.8 		"/>
	</g>
	<g>
		<polygon style="fill:#FFA800;" points="340.333,503.467 365.933,503.467 365.933,128 340.333,128 		"/>
		<polygon style="fill:#FFA800;" points="340.333,76.8 365.933,76.8 365.933,8.533 340.333,8.533 		"/>
	</g>
	<g>
		<polygon style="fill:#FFFFFF;" points="144.067,503.467 169.667,503.467 169.667,128 144.067,128 		"/>
		<polygon style="fill:#FFFFFF;" points="144.067,76.8 169.667,76.8 169.667,8.533 144.067,8.533 		"/>
	</g>
	<path d="M255,179.2c-5.12,0-8.533-3.413-8.533-8.533V153.6c0-5.12,3.413-8.533,8.533-8.533s8.533,3.413,8.533,8.533v17.067
		C263.533,175.787,260.12,179.2,255,179.2z"/>
	<path d="M255,442.027c-5.12,0-8.533-3.413-8.533-8.533v-34.987c0-5.12,3.413-8.533,8.533-8.533s8.533,3.413,8.533,8.533v34.987
		C263.533,438.613,260.12,442.027,255,442.027z M255,354.987c-5.12,0-8.533-3.413-8.533-8.533v-34.987
		c0-5.12,3.413-8.533,8.533-8.533s8.533,3.413,8.533,8.533v34.987C263.533,350.72,260.12,354.987,255,354.987z M255,267.093
		c-5.12,0-8.533-3.413-8.533-8.533v-34.987c0-5.12,3.413-8.533,8.533-8.533s8.533,3.413,8.533,8.533v34.987
		C263.533,262.827,260.12,267.093,255,267.093z"/>
	<path d="M255,512c-5.12,0-8.533-3.413-8.533-8.533V486.4c0-5.12,3.413-8.533,8.533-8.533s8.533,3.413,8.533,8.533v17.067
		C263.533,508.587,260.12,512,255,512z"/>
	<path d="M101.4,153.6H50.2c-5.12,0-8.533-3.413-8.533-8.533V59.733c0-5.12,3.413-8.533,8.533-8.533h51.2
		c5.12,0,8.533,3.413,8.533,8.533v85.333C109.933,150.187,106.52,153.6,101.4,153.6z M58.733,136.533h34.133V68.267H58.733V136.533z
		"/>
	<path d="M459.8,153.6h-51.2c-5.12,0-8.533-3.413-8.533-8.533V59.733c0-5.12,3.413-8.533,8.533-8.533h51.2
		c5.12,0,8.533,3.413,8.533,8.533v85.333C468.333,150.187,464.92,153.6,459.8,153.6z M417.133,136.533h34.133V68.267h-34.133
		V136.533z"/>
	<path d="M408.6,136.533H101.4c-5.12,0-8.533-3.413-8.533-8.533V76.8c0-5.12,3.413-8.533,8.533-8.533h307.2
		c5.12,0,8.533,3.413,8.533,8.533V128C417.133,133.12,413.72,136.533,408.6,136.533z M109.933,119.467h290.133V85.333H109.933
		V119.467z"/>
	<path d="M365.933,512H144.067c-5.12,0-8.533-3.413-8.533-8.533V128c0-5.12,3.413-8.533,8.533-8.533h221.867
		c5.12,0,8.533,3.413,8.533,8.533v375.467C374.467,508.587,371.053,512,365.933,512z M152.6,494.933h204.8v-358.4H152.6V494.933z"/>
	<path d="M365.933,85.333H144.067c-5.12,0-8.533-3.413-8.533-8.533V8.533c0-5.12,3.413-8.533,8.533-8.533h221.867
		c5.12,0,8.533,3.413,8.533,8.533V76.8C374.467,81.92,371.053,85.333,365.933,85.333z M152.6,68.267h204.8v-51.2H152.6V68.267z"/>
	<path d="M135.533,136.533c-0.853,0-1.707,0-2.56-0.853c-4.267-1.707-6.827-5.973-5.12-11.093l17.067-51.2
		c1.707-4.267,5.973-6.827,11.093-5.12c4.267,1.707,6.827,5.973,5.12,11.093l-17.067,51.2
		C142.36,133.973,138.947,136.533,135.533,136.533z"/>
	<path d="M178.2,136.533c-0.853,0-1.707,0-2.56-0.853c-4.267-1.707-6.827-5.973-5.12-11.093l17.067-51.2
		c1.707-4.267,5.973-6.827,11.093-5.12c4.267,1.707,6.827,5.973,5.12,11.093l-17.067,51.2
		C185.027,133.973,181.613,136.533,178.2,136.533z"/>
	<path d="M220.867,136.533c-0.853,0-1.707,0-2.56-0.853c-4.267-1.707-6.827-5.973-5.12-11.093l17.067-51.2
		c1.707-4.267,5.973-6.827,11.093-5.12c4.267,1.707,6.827,5.973,5.12,11.093l-17.067,51.2
		C227.693,133.973,224.28,136.533,220.867,136.533z"/>
	<path d="M263.533,136.533c-0.853,0-1.707,0-2.56-0.853c-4.267-1.707-6.827-5.973-5.12-11.093l17.067-51.2
		c1.707-4.267,5.973-6.827,11.093-5.12c4.267,1.707,6.827,5.973,5.12,11.093l-17.067,51.2
		C270.36,133.973,266.947,136.533,263.533,136.533z"/>
	<path d="M306.2,136.533c-0.853,0-1.707,0-2.56-0.853c-4.267-1.707-6.827-5.973-5.12-11.093l17.067-51.2
		c1.707-4.267,5.973-6.827,11.093-5.12c4.267,1.707,6.827,5.973,5.12,11.093l-17.067,51.2
		C313.027,133.973,309.613,136.533,306.2,136.533z"/>
	<path d="M348.867,136.533c-0.853,0-1.707,0-2.56-0.853c-4.267-1.707-6.827-5.973-5.12-11.093l17.067-51.2
		c1.707-4.267,5.973-6.827,11.093-5.12c4.267,1.707,6.827,5.973,5.12,11.093l-17.067,51.2
		C355.693,133.973,352.28,136.533,348.867,136.533z"/>
</g>
</svg>